<?xml version="1.0" encoding="iso-8859-1"?>
<!-- Generator: Adobe Illustrator 16.0.0, SVG Export Plug-In . SVG Version: 6.00 Build 0)  -->
<!DOCTYPE svg PUBLIC "-//W3C//DTD SVG 1.1//EN" "http://www.w3.org/Graphics/SVG/1.1/DTD/svg11.dtd">
<svg version="1.1" id="Capa_1" xmlns="http://www.w3.org/2000/svg" xmlns:xlink="http://www.w3.org/1999/xlink" x="0px" y="0px"
	 width="436.668px" height="436.668px" viewBox="0 0 436.668 436.668" style="enable-background:new 0 0 436.668 436.668;"
	 xml:space="preserve">
<g>
	<path d="M347.082,85.812c1.59-0.622,2.72-1.683,3.003-1.966c0.304-0.301,0.986-0.47,1.874-0.47c3.563,0,9.879,2.722,15.953,8.801
		c3.862,3.866,6.824,8.349,8.121,12.304c0.913,2.801,0.745,4.591,0.272,5.386c-0.031,0.026-0.062,0.055-0.089,0.082
		c-0.179,0.154-0.348,0.322-0.493,0.493c-0.667,0.698-4.326,4.391-10.343,10.457c-1.244-1.189-2.493-2.362-3.727-3.598
		c-6.44-6.439-12.819-13.213-18.966-20.118c-1.108-1.242-2.152-2.484-3.238-3.728L347.082,85.812z"/>
	<path d="M56.212,431.061c-0.047,0.049-0.103,0.096-0.144,0.137l-1.861,1.857c-0.375,0.143-0.743,0.327-1.087,0.558
		c-7.396,4.872-17.861,3.826-24.166-2.478c-6.399-6.404-7.452-16.542-2.501-24.111c0.23-0.352,0.415-0.735,0.548-1.128
		l229.082-229.077c1.28,0.918,2.565,1.832,3.825,2.779c0.888,0.667,1.786,1.318,2.651,1.995c2.761,2.15,5.477,4.352,8.074,6.609
		c3.544,3.086,7.05,6.354,10.41,9.719c1.291,1.287,2.535,2.591,3.773,3.893C190.3,296.644,56.212,431.05,56.212,431.061z"/>
	<path d="M388.49,248.439c-14.399,14.399-32.41,23.234-50.022,24.677c-6.909-25.669-21.801-52.037-42.27-74.725l-1.091-1.244
		c-0.582-0.667-1.16-1.333-1.784-2c-1.534-1.622-3.093-3.244-4.692-4.837c-3.534-3.531-7.214-6.966-10.951-10.219
		c-5.985-5.207-12.421-10.175-19.129-14.761c-27.654-18.897-57.767-29.305-84.794-29.305c-11.698,0-22.48,1.924-32.139,5.73
		c-6.714-33.391,7.499-73.085,37.299-102.886C203.621,14.164,235.028,0,265.071,0c2.997,0,5.968,0.145,8.887,0.441
		c2.85,23.893,22.677,59.339,54.042,96.225c2.153,2.548,4.368,5.092,6.641,7.648c6.284,7.067,12.818,13.997,19.401,20.583
		c1.886,1.892,3.786,3.693,5.68,5.494l2.018,1.926c6.812,6.509,12.787,11.974,18.272,16.693
		c9.611,8.284,19.186,15.843,28.478,22.487C419.503,193.586,411.219,225.714,388.49,248.439z"/>
</g>
<g>
</g>
<g>
</g>
<g>
</g>
<g>
</g>
<g>
</g>
<g>
</g>
<g>
</g>
<g>
</g>
<g>
</g>
<g>
</g>
<g>
</g>
<g>
</g>
<g>
</g>
<g>
</g>
<g>
</g>
</svg>
